HIERARCHY
ROOT Hips
{
	OFFSET 48.678299 -11.220716 100.572998
	CHANNELS 6 Xposition Yposition Zposition Xrotation Yrotation Zrotation
	JOINT spine
	{
		OFFSET 0.000000 -0.507026 8.817047
		CHANNELS 3 Xrotation Yrotation Zrotation
		JOINT spine1
		{
			OFFSET 0.000000 -0.000002 10.776596
			CHANNELS 3 Xrotation Yrotation Zrotation
			JOINT spine2
			{
				OFFSET 0.000000 -0.000001 10.325897
				CHANNELS 3 Xrotation Yrotation Zrotation
				JOINT Neck
				{
					OFFSET 0.000000 -1.263955 26.511002
					CHANNELS 3 Xrotation Yrotation Zrotation
					JOINT Head
					{
						OFFSET 0.000000 -0.000001 8.009659
						CHANNELS 3 Xrotation Yrotation Zrotation
						End Site
						{
							OFFSET 0.000000 6.393857 19.387894
						}
					}
				}
				JOINT RightShoulder
				{
					OFFSET -4.347950 0.605420 11.151199
					CHANNELS 3 Xrotation Yrotation Zrotation
					JOINT RightArm
					{
						OFFSET 0.000000 -0.000003 14.625793
						CHANNELS 3 Xrotation Yrotation Zrotation
						JOINT RightArmRoll
						{
							OFFSET 0.000000 -0.000001 7.383392
							CHANNELS 3 Xrotation Yrotation Zrotation
							JOINT RightForeArm
							{
								OFFSET 0.000000 -0.000004 21.505203
								CHANNELS 3 Xrotation Yrotation Zrotation
								JOINT RightForeArmRoll
								{
									OFFSET 0.000000 -0.000001 8.285324
									CHANNELS 3 Xrotation Yrotation Zrotation
									JOINT RightHand
									{
										OFFSET 0.000000 -0.000003 16.626801
										CHANNELS 3 Xrotation Yrotation Zrotation
										End Site
										{
											OFFSET 0.000000 0.000000 0.100006
										}
									}
								}
							}
						}
					}
				}
				JOINT LeftShoulder
				{
					OFFSET 4.347950 0.605420 11.151199
					CHANNELS 3 Xrotation Yrotation Zrotation
					JOINT LeftArm
					{
						OFFSET 0.000000 -0.000003 14.625793
						CHANNELS 3 Xrotation Yrotation Zrotation
						JOINT LeftArmRoll
						{
							OFFSET 0.000000 -0.000001 7.383392
							CHANNELS 3 Xrotation Yrotation Zrotation
							JOINT LeftForeArm
							{
								OFFSET 0.000000 -0.000004 21.505203
								CHANNELS 3 Xrotation Yrotation Zrotation
								JOINT LeftForeArmRoll
								{
									OFFSET 0.000000 -0.000001 8.285324
									CHANNELS 3 Xrotation Yrotation Zrotation
									JOINT LeftHand
									{
										OFFSET 0.000000 -0.000003 16.626801
										CHANNELS 3 Xrotation Yrotation Zrotation
										End Site
										{
											OFFSET 0.000000 0.000000 0.100006
										}
									}
								}
							}
						}
					}
				}
			}
		}
	}
	JOINT RightUpLeg
	{
		OFFSET -7.815102 1.202170 -1.433090
		CHANNELS 3 Xrotation Yrotation Zrotation
		JOINT RightUpLegRoll
		{
			OFFSET 0.000000 -0.000003 19.495895
			CHANNELS 3 Xrotation Yrotation Zrotation
			JOINT RightLeg
			{
				OFFSET 0.000000 0.000004 -24.142700
				CHANNELS 3 Xrotation Yrotation Zrotation
				JOINT RightLegRoll
				{
					OFFSET 0.000000 -0.000004 24.221703
					CHANNELS 3 Xrotation Yrotation Zrotation
					JOINT RightFoot
					{
						OFFSET 0.000000 -0.000004 20.160500
						CHANNELS 3 Xrotation Yrotation Zrotation
						JOINT RightToeBase
						{
							OFFSET 0.000000 -0.000003 16.853195
							CHANNELS 3 Xrotation Yrotation Zrotation
							End Site
							{
								OFFSET 0.007145 0.940779 8.161865
							}
						}
					}
				}
			}
		}
	}
	JOINT LeftUpLeg
	{
		OFFSET 7.815102 1.202170 -1.433090
		CHANNELS 3 Xrotation Yrotation Zrotation
		JOINT LeftUpLegRoll
		{
			OFFSET 0.000000 -0.000003 19.496002
			CHANNELS 3 Xrotation Yrotation Zrotation
			JOINT LeftLeg
			{
				OFFSET 0.000000 -0.000004 24.142593
				CHANNELS 3 Xrotation Yrotation Zrotation
				JOINT LeftLegRoll
				{
					OFFSET 0.000000 -0.000005 24.445602
					CHANNELS 3 Xrotation Yrotation Zrotation
					JOINT LeftFoot
					{
						OFFSET 0.000000 -0.000003 19.936600
						CHANNELS 3 Xrotation Yrotation Zrotation
						JOINT LeftToeBase
						{
							OFFSET 0.000000 -0.000003 16.853195
							CHANNELS 3 Xrotation Yrotation Zrotation
							End Site
							{
								OFFSET -0.032013 0.940780 8.161865
							}
						}
					}
				}
			}
		}
	}
}
MOTION
Frames: 13
Frame Time: 0.041667
46.054901 -9.848534 100.171997 2.978088 0.754596 11.867642 -1.131503 0.121242 0.615520 1.738644 0.237404 1.231863 3.383563 0.252164 1.228944 2.087368 39.218769 -2.328121 9.400644 -25.927308 -1.904867 3.734619 -21.188225 11.502877 265.644007 -155.473848 289.176850 0.000002 -0.000002 -0.000000 22.962700 -0.958622 -0.700793 -0.000000 -0.000005 -3.003551 -5.000202 -7.998951 0.000149 -43.693885 64.861928 50.574884 265.112427 121.866721 -213.017686 0.000003 0.000006 -0.000002 107.149747 -14.251498 26.841839 -0.000000 -0.000018 3.000129 -5.000179 7.998703 -0.000147 -5.424209 -181.400727 -2.741699 -179.999991 0.000005 -0.971003 172.526412 -0.916148 -0.449194 -0.000002 0.000000 0.161381 69.930632 7.146894 1.387841 25.459211 -7.360933 0.003524 -11.573271 174.316167 1.747580 -0.000005 -0.000005 -0.967448 -14.355996 2.136880 0.792293 -0.000006 0.000001 -0.208676 69.546571 -6.854865 -2.179616 25.653422 7.347212 -0.290402 
46.096600 -9.868305 100.183990 2.943113 0.716442 11.651764 -1.149613 0.115817 0.611580 1.702503 0.226399 1.223971 3.347420 0.241065 1.221180 2.131022 38.924521 -2.239467 9.312117 -25.670206 -1.833500 3.746253 -21.464336 11.448126 265.740941 -155.467810 288.794714 0.000002 -0.000002 0.000003 23.455761 -1.243685 -0.663068 -0.000001 -0.000004 -3.003540 -5.000204 -7.998952 0.000147 -43.444494 64.807266 50.301813 265.211929 122.147975 -213.260923 0.000003 0.000010 0.000000 107.025198 -14.174327 26.654180 0.000001 -0.000016 3.000132 -5.000177 7.998704 -0.000148 -5.375843 -181.328149 -2.691401 -179.999991 0.000005 -0.970005 172.559538 -0.947954 -0.450800 -0.000002 -0.000000 0.157861 69.900743 7.142004 1.403396 25.459211 -7.360932 0.003523 -11.458850 174.357996 1.739152 -0.000005 -0.000004 -0.969378 -14.349048 2.153077 0.793039 -0.000006 0.000000 -0.209527 69.575544 -6.854510 -2.178760 25.677563 7.347270 -0.326077 
46.128201 -9.906015 100.188004 2.909267 0.678481 11.433019 -1.167901 0.110319 0.607722 1.665992 0.215203 1.216251 3.310906 0.229776 1.213588 2.178766 38.625389 -2.151812 9.219313 -25.408404 -1.762821 3.756528 -21.743269 11.390859 265.837793 -155.462441 288.406104 0.000003 -0.000001 0.000003 23.952755 -1.528017 -0.622530 -0.000000 -0.000003 -3.003538 -5.000201 -7.998953 0.000144 -43.189325 64.752072 50.022123 265.308699 122.428778 -213.504651 0.000004 0.000007 -0.000000 106.899721 -14.095573 26.466367 0.000002 -0.000017 3.000133 -5.000177 7.998703 -0.000148 -5.329393 -181.254574 -2.640600 -179.999991 0.000005 -0.970004 172.592870 -0.980755 -0.452509 -0.000003 0.000000 0.154321 69.870465 7.137165 1.418883 25.459209 -7.360933 0.003533 -11.345334 174.400862 1.731893 -0.000006 -0.000005 -0.971296 -14.342094 2.168842 0.793709 -0.000006 0.000001 -0.210415 69.606635 -6.854149 -2.177773 25.702413 7.347310 -0.362874 
46.165699 -9.925877 100.191994 2.876564 0.640995 11.211592 -1.186373 0.104773 0.603856 1.629101 0.203872 1.208512 3.274024 0.218351 1.206000 2.229772 38.320886 -2.064791 9.123211 -25.141914 -1.692465 3.765188 -22.024734 11.330998 265.935137 -155.457769 288.012302 0.000002 -0.000002 -0.000001 24.453817 -1.810745 -0.579264 0.000000 -0.000004 -3.003528 -5.000202 -7.998953 0.000147 -42.928449 64.695545 49.735921 265.404267 122.709334 -213.750756 0.000004 0.000011 -0.000001 106.771648 -14.015852 26.274283 -0.000002 -0.000016 3.000130 -5.000181 7.998702 -0.000148 -5.284937 -181.180972 -2.589586 -179.999991 0.000005 -0.970006 172.626379 -1.012557 -0.453035 -0.000003 0.000000 0.150769 69.839640 7.132281 1.434595 25.459209 -7.360932 0.003533 -11.233029 174.444794 1.725300 -0.000004 -0.000004 -0.973189 -14.335442 2.184389 0.794343 -0.000006 0.000000 -0.211330 69.639605 -6.853730 -2.176860 25.727776 7.347318 -0.400287 
46.213001 -9.920654 100.196999 2.845010 0.604262 10.987870 -1.205042 0.099200 0.599896 1.591839 0.192462 1.200602 3.236761 0.206845 1.198222 2.283236 38.010423 -1.978079 9.024745 -24.870780 -1.622081 3.771947 -22.308339 11.268287 266.033546 -155.454095 287.614212 0.000002 -0.000003 0.000005 24.959058 -2.091000 -0.533343 -0.000000 -0.000003 -3.003528 -5.000202 -7.998953 0.000150 -42.660665 64.636833 49.442083 265.500108 122.989768 -214.001247 0.000002 0.000009 0.000000 106.640563 -13.934345 26.079723 0.000000 -0.000019 3.000128 -5.000176 7.998704 -0.000148 -5.242526 -181.107384 -2.538781 -179.999991 0.000005 -0.970004 172.660052 -1.045367 -0.454660 -0.000003 -0.000000 0.147203 69.808071 7.127339 1.450340 25.459206 -7.360931 0.003543 -11.122155 174.488821 1.719064 -0.000005 -0.000005 -0.975060 -14.329286 2.199943 0.794985 -0.000007 0.000001 -0.212262 69.674159 -6.853275 -2.175942 25.753133 7.347304 -0.437812 
46.250000 -9.955140 100.217003 2.814610 0.568563 10.762247 -1.223893 0.093627 0.595755 1.554198 0.181029 1.192329 3.199119 0.195312 1.190084 2.338346 37.693301 -1.891344 8.924898 -24.595117 -1.551311 3.776517 -22.593591 11.202505 266.133676 -155.451363 287.213225 0.000002 -0.000002 0.000004 25.468607 -2.367853 -0.484854 0.000001 -0.000003 -3.003519 -5.000206 -7.998955 0.000149 -42.386043 64.574938 49.140609 265.597315 123.270353 -214.257625 0.000003 0.000005 0.000002 106.505080 -13.851295 25.881598 -0.000002 -0.000018 3.000126 -5.000177 7.998704 -0.000147 -5.202216 -181.034738 -2.488487 -179.999991 0.000005 -0.968993 172.693847 -1.078182 -0.456232 -0.000002 0.000000 0.143628 69.775505 7.122264 1.466622 25.459211 -7.360934 0.003544 -11.012846 174.530963 1.713042 -0.000005 -0.000004 -0.976900 -14.323639 2.215735 0.795671 -0.000006 0.000001 -0.213207 69.710092 -6.852769 -2.175030 25.778186 7.347271 -0.474951 
46.295197 -9.970782 100.221001 2.785373 0.534176 10.535010 -1.242941 0.088073 0.591347 1.516157 0.169634 1.183521 3.161086 0.183808 1.181408 2.394308 37.368863 -1.804279 8.824590 -24.314787 -1.479903 3.778620 -22.880106 11.133452 266.236047 -155.449682 286.810271 0.000002 -0.000003 0.000006 25.982646 -2.640394 -0.433944 -0.000001 -0.000003 -3.003510 -5.000202 -7.998952 0.000147 -42.104291 64.509094 48.831297 265.697173 123.551333 -214.521803 0.000001 0.000006 0.000000 106.364268 -13.766393 25.676768 0.000000 -0.000018 3.000126 -5.000179 7.998701 -0.000151 -5.164065 -180.964086 -2.439025 -179.999991 0.000005 -0.968993 172.727766 -1.110988 -0.457775 -0.000002 0.000000 0.140045 69.741757 7.117116 1.483166 25.459207 -7.360934 0.003553 -10.905464 174.573187 1.706349 -0.000005 -0.000005 -0.978708 -14.318797 2.231985 0.796438 -0.000006 0.000000 -0.214154 69.747173 -6.852242 -2.174044 25.802622 7.347212 -0.511204 
46.328602 -9.989620 100.218994 2.757308 0.501379 10.306452 -1.262190 0.082564 0.586583 1.477726 0.158332 1.173985 3.122664 0.172390 1.172015 2.450352 37.036588 -1.716613 8.724770 -24.029816 -1.407546 3.777950 -23.167491 11.060860 266.341424 -155.449382 286.406798 0.000001 -0.000003 0.000002 26.501180 -2.907774 -0.380810 -0.000001 -0.000004 -3.003512 -5.000206 -7.998951 0.000151 -41.814838 64.438532 48.513594 265.801019 123.832819 -214.795461 0.000001 0.000003 0.000001 106.217542 -13.679085 25.467066 -0.000000 -0.000016 3.000135 -5.000180 7.998701 -0.000151 -5.128139 -180.894418 -2.390884 -179.999991 0.000005 -0.967997 172.761753 -1.142824 -0.459154 -0.000003 0.000000 0.136459 69.706582 7.111778 1.500366 25.459204 -7.360933 0.003554 -10.800168 174.612570 1.699026 -0.000005 -0.000005 -0.980478 -14.314961 2.248924 0.797338 -0.000007 0.000001 -0.215096 69.785013 -6.851737 -2.173018 25.826159 7.347130 -0.546095 
46.406399 -9.933573 100.224991 2.730401 0.470446 10.077064 -1.281630 0.077123 0.581376 1.438905 0.147183 1.163563 3.083832 0.161114 1.161720 2.505710 36.695830 -1.628076 8.626345 -23.740151 -1.333978 3.774215 -23.455249 10.984509 266.450351 -155.450447 286.003762 0.000001 -0.000002 0.000002 27.024388 -3.169031 -0.325584 -0.000002 -0.000005 -3.003498 -5.000202 -7.998954 0.000141 -41.517353 64.362245 48.187196 265.910029 124.115192 -215.080430 0.000000 0.000003 -0.000001 106.063528 -13.589537 25.250427 0.000000 -0.000017 3.000131 -5.000180 7.998702 -0.000150 -5.094484 -180.827742 -2.344299 -179.999991 0.000005 -0.967996 172.795836 -1.173661 -0.460353 -0.000003 0.000000 0.132869 69.669753 7.106244 1.518232 25.459209 -7.360934 0.003554 -10.697216 174.651038 1.690182 -0.000005 -0.000005 -0.982212 -14.312240 2.266772 0.798403 -0.000007 0.000000 -0.216026 69.823583 -6.851181 -2.172036 25.848480 7.347042 -0.579123 
46.443699 -9.970292 100.221001 2.704679 0.441653 9.847026 -1.301280 0.071773 0.575639 1.399664 0.136245 1.152079 3.044600 0.150038 1.150370 2.559624 36.345899 -1.538415 8.530262 -23.445861 -1.258953 3.767120 -23.742994 10.904159 266.563541 -155.453015 285.602393 0.000002 -0.000001 0.000002 27.552435 -3.423395 -0.268544 -0.000001 -0.000005 -3.003490 -5.000202 -7.998954 0.000148 -41.211743 64.279334 47.851988 266.024967 124.398618 -215.377926 0.000001 0.000002 0.000000 105.901578 -13.497097 25.027666 0.000002 -0.000017 3.000130 -5.000178 7.998701 -0.000151 -5.063185 -180.765014 -2.299602 -179.999991 0.000005 -0.967000 172.829973 -1.203513 -0.461401 -0.000002 0.000001 0.129280 69.631074 7.100497 1.536774 25.459204 -7.360934 0.003563 -10.596761 174.685667 1.679835 -0.000005 -0.000004 -0.983900 -14.310731 2.285752 0.799671 -0.000006 0.000001 -0.216937 69.862460 -6.850564 -2.171226 25.869085 7.346949 -0.609760 
46.485901 -9.977153 100.227997 2.680149 0.415276 9.616769 -1.321129 0.066539 0.569285 1.360023 0.125579 1.139349 3.004969 0.139218 1.137761 2.611357 35.986194 -1.447407 8.437424 -23.146985 -1.182224 3.756365 -24.030443 10.819572 266.681485 -155.457250 285.203783 0.000001 -0.000001 0.000002 28.085185 -3.669921 -0.209947 0.000000 -0.000006 -3.003492 -5.000206 -7.998952 0.000147 -40.897960 64.188882 47.507961 266.147118 124.683464 -215.689806 0.000000 0.000002 -0.000001 105.730447 -13.401965 24.794698 -0.000000 -0.000017 3.000129 -5.000176 7.998705 -0.000148 -5.034274 -180.705290 -2.257264 -179.999991 0.000005 -0.966999 172.864110 -1.232379 -0.463289 -0.000002 0.000000 0.125694 69.590400 7.094488 1.556093 25.459206 -7.360935 0.003563 -10.499282 174.717441 1.667306 -0.000005 -0.000005 -0.985544 -14.310840 2.306102 0.801197 -0.000006 0.000001 -0.217820 69.901461 -6.849975 -2.170214 25.887761 7.346851 -0.637543 
46.612099 -9.966792 100.226997 2.656802 0.391588 9.386618 -1.341191 0.061444 0.562227 1.319963 0.115243 1.125186 2.964907 0.128713 1.123733 2.660167 35.615946 -1.354842 8.348716 -22.843308 -1.103631 3.741622 -24.316995 10.730458 266.805002 -155.463370 284.809162 0.000001 -0.000002 0.000002 28.622879 -3.907754 -0.150089 -0.000000 -0.000003 -3.003476 -5.000203 -7.998952 0.000150 -40.575651 64.090090 47.154793 266.277356 124.969922 -216.017464 0.000001 0.000001 0.000000 105.549536 -13.303413 24.553422 -0.000001 -0.000020 3.000118 -5.000178 7.998704 -0.000147 -5.007826 -180.650526 -2.217538 -179.999991 0.000005 -0.966001 172.898288 -1.259271 -0.463883 -0.000002 0.000000 0.122111 69.547431 7.088204 1.576304 25.459310 -7.360928 0.003576 -10.404717 174.744352 1.652399 -0.000005 -0.000006 -0.987137 -14.312466 2.328034 0.803008 -0.000007 0.000000 -0.218666 69.940345 -6.849347 -2.169401 25.904222 7.346767 -0.661962 
46.634602 -9.999735 100.234001 2.635325 0.370132 9.156164 -1.361721 0.056590 0.554442 1.278952 0.105427 1.109577 2.923896 0.118710 1.108236 2.706172 35.236768 -1.259883 8.262755 -22.535478 -1.022756 3.721687 -24.602589 10.634837 266.936032 -155.473684 284.418175 0.000002 -0.000002 0.000004 29.163904 -4.140058 -0.089055 0.000000 -0.000005 -3.003481 -5.000202 -7.998953 0.000143 -40.242850 63.982323 46.790392 266.413824 125.254768 -216.357525 -0.000000 0.000003 -0.000002 105.362737 -13.201688 24.305336 -0.000000 -0.000018 3.000122 -5.000178 7.998702 -0.000147 -4.984234 -180.597756 -2.179771 -179.999991 0.000005 -0.965005 172.933286 -1.286154 -0.464441 -0.000002 0.000000 0.118502 69.501601 7.081539 1.597825 25.459313 -7.360928 0.003587 -10.314005 174.769419 1.635221 -0.000005 -0.000006 -0.988678 -14.316014 2.351458 0.805113 -0.000006 0.000000 -0.219509 69.979980 -6.848694 -2.168540 25.918565 7.346702 -0.683400 
